<?xml version="1.0" encoding="utf-8"?>
<!DOCTYPE svg PUBLIC "-//W3C//DTD SVG 1.1//EN" "http://www.w3.org/Graphics/SVG/1.1/DTD/svg11.dtd">
<svg version="1.1" id="图形" xmlns="http://www.w3.org/2000/svg" xmlns:xlink="http://www.w3.org/1999/xlink" x="0px" y="0px" width="1024px" height="1024px" viewBox="0 0 1024 1024" enable-background="new 0 0 1024 1024" xml:space="preserve">
  <path fill="#272636" d="M600.70591 294.818866C653.831642 325.057433 689.671642 382.141612 689.671642 447.631761c0 97.06603-78.695164 175.761194-175.761194 175.761194-97.06603 0-175.761194-78.687522-175.761194-175.761194 0-65.490149 35.847642-122.574328 88.965731-152.812896C296.310448 257.175403 200.597015 136.702567 200.597015-6.214209c0-12.662448 10.262925-22.925373 22.925373-22.925373s22.925373 10.262925 22.925373 22.925373c0 147.715821 119.746866 267.462687 267.462687 267.462687 147.723463 0 267.462687-119.746866 267.462687-267.462687 0-12.662448 10.270567-22.925373 22.925373-22.925373s22.925373 10.262925 22.925373 22.925373C827.223881 136.702567 731.510448 257.175403 600.70591 294.818866zM384.435582 447.631761c0 71.748776 58.161672 129.910448 129.910448 129.910448 71.756418 0 129.910448-58.161672 129.910448-129.910448s-58.15403-129.910448-129.910448-129.910448C442.597254 317.721313 384.435582 375.882985 384.435582 447.631761z" transform="translate(0, 812) scale(1, -1)"/>
</svg>
