<?xml version="1.0" encoding="utf-8"?>
<!DOCTYPE svg PUBLIC "-//W3C//DTD SVG 1.1//EN" "http://www.w3.org/Graphics/SVG/1.1/DTD/svg11.dtd">
<svg version="1.1" id="图形" xmlns="http://www.w3.org/2000/svg" xmlns:xlink="http://www.w3.org/1999/xlink" x="0px" y="0px" width="1024px" height="1024px" viewBox="0 0 1024 1024" enable-background="new 0 0 1024 1024" xml:space="preserve">
  <path fill="#272636" d="M573.989475 312.942837l288.898365 279.702021c14.022629 13.587739 14.022629 35.617094 0 49.206846-14.020551 13.587739-36.757056 13.587739-50.780724 0L523.185891 362.128539 234.265705 641.852712c-14.023668 13.587739-36.760173 13.587739-50.780724 0-14.022629-13.589753-14.022629-35.620114 0-49.206846l288.898365-279.702021L183.484981 33.240816c-14.022629-13.587739-14.022629-35.617094 0-49.206846 14.020551-13.587739 36.757056-13.587739 50.780724 0l288.920186 279.724172 288.920186-279.724172c14.023668-13.587739 36.760173-13.587739 50.780724 0 14.022629 13.589753 14.022629 35.620114 0 49.206846L573.989475 312.942837z" transform="translate(0, 812) scale(1, -1)"/>
</svg>
